# xmcd
#
# Track frame offsets:
# 150
# 4328
# 13949
# 32909
# 44881
# 60062
# 72320
# 92822
# 106491
# 124010
# 146131
# 159136
# 170955
# 188957
#
# Disc length: 3034 seconds
#
#
# Revision: 0
# Processed by: cddbd v1.5.1PL0 Copyright (c) Steve Scherf et al.
# Submitted via: FreeRIP 2.942 
#
DISCID=c80bd80e
DTITLE=Greenhouse Effect - Columbus or Bust
DYEAR=2005
DGENRE=Hip-Hop
TTITLE0=The Idea
TTITLE1=Ground Zero
TTITLE2=Still Shook
TTITLE3=Watch
TTITLE4=Columbus Or Bust
TTITLE5=E-Thugs
TTITLE6=They Listen To This f. Murs
TTITLE7=Square One
TTITLE8=The Street Theme
TTITLE9=It's Only Life
TTITLE10=Find Me At The Bar
TTITLE11=Bad Girl
TTITLE12=You Must Learn f. Jakki the Motormouth
TTITLE13=I Will Not Lose
EXTD=
EXTT0=
EXTT1=
EXTT2=
EXTT3=
EXTT4=
EXTT5=
EXTT6=
EXTT7=
EXTT8=
EXTT9=
EXTT10=
EXTT11=
EXTT12=
EXTT13=
PLAYORDER=
